<?xml version="1.0" encoding="utf-8"?>
<!-- Generator: Adobe Illustrator 22.1.0, SVG Export Plug-In . SVG Version: 6.00 Build 0)  -->
<svg version="1.1" id="Isolation_Mode" xmlns="http://www.w3.org/2000/svg" xmlns:xlink="http://www.w3.org/1999/xlink" x="0px"
	 y="0px" viewBox="0 0 266 174" style="enable-background:new 0 0 266 174;" xml:space="preserve">
<path d="M184.901,109.979l0.588,0.556c0,0-1.029,1.519-3.056,1.519c-2.222,0-3.841-1.764-3.841-3.922
	c0-2.157,1.619-3.923,3.841-3.923c1.945,0,2.975,1.406,2.975,1.406l-0.606,0.54c0,0-0.799-1.112-2.369-1.112
	c-1.781,0-2.958,1.438-2.958,3.089s1.177,3.088,2.958,3.088C184.084,111.221,184.901,109.979,184.901,109.979"/>
<polygon points="189.282,99.504 190.099,99.504 190.099,111.858 189.25,111.858 "/>
<path d="M201.671,108.133c0,2.157-1.569,3.922-3.791,3.922c-2.223,0-3.792-1.765-3.792-3.922c0-2.157,1.569-3.923,3.792-3.923
	C200.102,104.21,201.671,105.976,201.671,108.133 M200.789,108.133c0-1.684-1.046-3.089-2.909-3.089
	c-1.863,0-2.909,1.405-2.909,3.089c0,1.683,1.046,3.088,2.909,3.088C199.743,111.221,200.789,109.816,200.789,108.133"/>
<path d="M204.681,104.406h1.617v-2.402h0.85v2.402h2.533v0.784h-2.533v4.494c0,0.834,0.295,1.536,1.307,1.536
	c0.589,0,1.112-0.342,1.112-0.342l0.327,0.735c0,0-0.719,0.441-1.471,0.441c-1.455,0-2.125-0.98-2.125-2.206v-4.658h-1.617V104.406z
	"/>
<path d="M217.102,104.21c1.389,0,2.794,0.866,2.794,2.893v4.755h-0.85v-4.625c0-1.536-0.898-2.189-2.108-2.189
	c-1.65,0-2.304,1.667-2.304,1.667v5.147h-0.849V99.504h0.849v6.128C214.634,105.632,215.353,104.21,217.102,104.21"/>
<path d="M224.865,101.334c0.36,0,0.655,0.294,0.655,0.653c0,0.361-0.295,0.655-0.655,0.655c-0.359,0-0.653-0.294-0.653-0.655
	C224.212,101.628,224.506,101.334,224.865,101.334 M224.441,104.406h0.85v7.452h-0.85V104.406z"/>
<path d="M235.947,107.103v4.756h-0.851v-4.625c0-1.536-0.898-2.19-2.107-2.19c-1.651,0-2.305,1.667-2.305,1.667v5.148h-0.849v-7.452
	h0.767v1.356c0,0,0.72-1.553,2.55-1.553C234.541,104.21,235.947,105.077,235.947,107.103"/>
<path d="M246.915,104.406v7.632c0,2.337-1.471,3.775-3.645,3.775c-2.189,0-3.415-1.52-3.415-1.52l0.571-0.605
	c0,0,0.949,1.291,2.844,1.291c1.912,0,2.795-1.242,2.795-2.908v-1.455c-0.245,0.344-1.046,1.438-2.697,1.438
	c-2.059,0-3.694-1.601-3.694-3.922c0-2.321,1.635-3.922,3.694-3.922c1.962,0,2.778,1.569,2.778,1.569v-1.373H246.915z
	 M246.065,106.776c0,0-0.769-1.732-2.697-1.732c-1.666,0-2.811,1.356-2.811,3.088s1.145,3.088,2.811,3.088
	c1.928,0,2.697-1.731,2.697-1.731V106.776z"/>
<path d="M248.797,72.475c-1.442,1.342-2.95,2.614-4.525,3.821c-1.574,1.208-3.302,2.263-5.178,3.169
	c-1.878,0.906-3.99,1.559-6.336,1.961c-0.014,0.012-0.03,0.018-0.044,0.029c-3-0.554-5.527-3.231-6.375-6.202
	c-0.004-0.458-0.035-0.89-0.118-1.269c-0.067-0.296-0.158-0.601-0.272-0.912c4.827-6.379,6.662-15.69,9.345-22.84
	c0.094-0.25,0.097-0.475,0.041-0.668c0.006-0.071-0.004-0.135-0.002-0.205c0.28-0.777,0.56-1.556,0.835-2.333
	c0.003,0.002,0.006,0.003,0.009,0.005c0.361-0.601,0.551-1.175,0.588-1.723c1.908-5.51,3.644-11.033,5.122-16.682h0.022v-0.082
	c0.209-0.8,0.405-1.607,0.604-2.412c1.508-3.281,1.565-7.426,2.226-10.917c0.046-0.157,0.09-0.301,0.137-0.467
	c0.303-1.073,0.453-2.128,0.453-3.169c0-1.038-0.218-1.961-0.654-2.765c-0.438-0.805-1.191-1.308-2.263-1.509
	c-0.336-0.469-0.922-0.604-1.759-0.402c-0.84,0.201-1.493,0.402-1.962,0.603c-3.821,6.974-6.973,14.467-9.453,22.478
	c-2.437,7.868-4.319,15.784-5.656,23.747c-0.12,0.028-0.227,0.103-0.266,0.254c-0.046,0.187-0.076,0.374-0.117,0.56
	c-0.058,0.076-0.096,0.177-0.096,0.33c-0.007,0.088-0.022,0.182-0.029,0.271c-0.137,0.757-0.214,1.515-0.245,2.277
	c-0.118,0.89-0.261,1.8-0.43,2.732c-0.275,1.508-0.407,2.955-0.412,4.349c-0.191,1.033-0.411,2.069-0.365,3.12
	c-0.04,0.287-0.056,0.606-0.028,0.979c0.066,0.905,0.167,1.761,0.302,2.565c-1.543,2.146-3.067,4.325-4.576,6.537
	c-1.508,2.213-3.437,3.99-5.782,5.33c-0.044-1.818,0.139-3.507,0.543-5.074c0.198-2.928,1.375-5.942,3.353-8.092
	c0.037-0.085,0.073-0.167,0.11-0.251c0.422-0.371,0.946-0.848,1.519-0.973c0.115,0.552,0.137,1.123,0.056,1.719
	c-0.023,0.17-0.036,0.333-0.043,0.492c-0.002,0.03-0.001,0.062-0.003,0.093c-0.013,0.494,0.051,0.937,0.197,1.325
	c0.201-0.066,0.302-0.051,0.302,0.051c0,0.1,0.065,0.15,0.201,0.15c0.937-0.937,1.574-1.927,1.911-2.967
	c0.335-1.039,0.468-2.329,0.401-3.872c-2.211-0.603-4.106-0.467-5.681,0.403c-1.577,0.872-2.902,2.179-3.973,3.921
	c-1.072,1.745-1.861,3.739-2.364,5.985c-0.502,2.247-0.787,4.375-0.854,6.387c0.201,0.336,0.336,0.77,0.402,1.306
	c0.068,0.537,0.268,0.974,0.603,1.308c0.201,0.067,0.319,0.051,0.352-0.05c0.035-0.102,0.118-0.117,0.252-0.051
	c0.269,0.739,0.789,1.241,1.558,1.509c0.77,0.269,1.56,0.437,2.364,0.503c1.408-0.402,2.631-0.972,3.671-1.71
	c1.038-0.737,1.994-1.609,2.866-2.615c0.871-1.005,1.642-2.062,2.313-3.168c0.67-1.107,1.308-2.195,1.911-3.268
	c0.469,1.141,0.989,2.28,1.559,3.419c0.569,1.141,1.257,2.162,2.062,3.068c0.805,0.905,1.742,1.609,2.815,2.112
	c0.675,0.316,1.454,0.507,2.314,0.598c0.124,0.06,0.26,0.108,0.416,0.126c1.101,0.133,2.103,0.322,3.15-0.146
	c0.278-0.124,0.55-0.261,0.819-0.404c0.355-0.154,0.708-0.3,1.061-0.443c1.245-0.269,2.478-0.616,3.573-1.16
	c1.502-0.745,2.835-1.939,4.137-3.058c0.073,0.004,0.14-0.004,0.218,0.011c0.404-0.402,0.687-0.704,0.857-0.905
	c0.165-0.201,0.483-0.469,0.954-0.805c0.133-0.133,0.101-0.234-0.1-0.301c-0.2-0.066-0.2-0.166,0-0.302
	c0.201-0.066,0.301-0.033,0.301,0.1c0,0.136,0.067,0.202,0.202,0.202c-0.067-0.335,0.1-0.486,0.504-0.453
	c0.401,0.035,0.468-0.117,0.2-0.453c0,0.068-0.067,0.152-0.2,0.252c-0.136,0.1-0.238,0.084-0.303-0.05
	c0.132-0.202,0.303-0.335,0.503-0.403c0.201-0.065,0.333-0.233,0.401-0.503c-0.2,0-0.401,0.085-0.601,0.252
	c-0.203,0.168-0.371,0.118-0.504-0.151c1.473-0.738,2.615-1.861,3.419-3.369c0.804-1.508,1.44-3.101,1.911-4.778
	C251.698,69.828,250.24,71.134,248.797,72.475 M226.321,68.501c2.091-4.625,11.732-32.786,11.732-32.786
	C234.833,50.509,226.321,68.501,226.321,68.501 M226.324,60.126c0.763-2.459,0.999-5.061,1.32-7.646
	c-0.038-0.084-0.061-0.182-0.058-0.297c0.057-1.719,0.434-3.336,0.949-4.925c0.005-0.095,0.014-0.19,0.013-0.286
	c-0.003-0.137,0.045-0.237,0.112-0.319c0.288-0.903,0.524-1.816,0.678-2.741c0.243-1.462,0.603-2.953,1.069-4.471
	c0.378-0.976,0.706-1.967,0.896-3.006c0.017-0.097,0.023-0.19,0.02-0.279c0.212-0.428,0.407-0.891,0.58-1.396
	c0.203-0.591,0.355-1.17,0.467-1.741c0.1-0.127,0.176-0.287,0.213-0.491l0.055-0.307c0.001-0.006,0-0.01,0.001-0.015
	c0.981-2.41,1.733-4.959,2.568-7.35c0.02-0.055,0.027-0.106,0.039-0.159c0.136-0.278,0.265-0.573,0.378-0.899
	c0.302-0.871,0.604-1.776,0.905-2.715c0.302-0.939,0.637-1.861,1.006-2.767c0.367-0.904,0.854-1.692,1.458-2.362
	c0.134-0.805,0.453-1.61,0.955-2.415c0.503-0.804,0.921-1.574,1.257-2.312c0.268,0.135,0.336,0.401,0.203,0.804
	c-0.071,0.209-0.083,0.4-0.044,0.573c-0.452,1.857-0.918,3.715-1.261,5.594c-0.522,2.854-1.464,5.164-2.31,7.901
	c-1.633,5.283-2.823,10.742-4.154,16.118c-0.215,0.559-0.428,1.119-0.63,1.695c-0.625,1.774-1.265,3.614-1.921,5.515
	c-0.038,0.061-0.07,0.129-0.1,0.2c-0.246,0.33-0.477,0.767-0.694,1.326c-0.003,0.007-0.004,0.013-0.007,0.021
	c-0.198,0.183-0.345,0.43-0.388,0.75c-0.023,0.178-0.063,0.351-0.097,0.526c-0.526,1.022-1.067,2.043-1.449,3.139
	c-0.418,1.199-0.802,2.39-1.279,3.54c-0.224,0.414-0.469,0.837-0.753,1.276C226.321,60.178,226.324,60.155,226.324,60.126
	 M231.127,51.897c0,0-4.787,13.195-5.866,14.261C225.261,66.159,228.194,58.461,231.127,51.897"/>
<path d="M64.306,67.748c0.095,0.664,0.141,1.338,0.147,2.017c0.01,0.024,0.015,0.048,0.023,0.072c-0.036,0.28-0.07,0.56-0.094,0.842
	c-0.008,0.088,0.01,0.165,0.03,0.239c-0.023,0.383-0.053,0.766-0.106,1.154c-0.202,1.476-0.352,2.902-0.453,4.275
	c-0.101,1.375-0.017,2.665,0.251,3.872c0.268,1.207,0.972,2.247,2.113,3.117c0.082-0.021,0.161-0.014,0.241-0.015
	c0.111,0.018,0.222,0.036,0.333,0.054c0.06,0.021,0.122,0.029,0.18,0.061c0.234,0.136,0.452,0.036,0.654-0.301
	c-0.348-0.607-0.61-1.292-0.802-2.04c-0.117-1.83,0.575-4.745,0.927-7.601c-0.001-0.029-0.008-0.054-0.008-0.084
	c0.002-0.692,0.149-1.368,0.19-2.055c0.003-0.122,0.011-0.246,0.013-0.366c0.001,0,0.002-0.001,0.003-0.001
	c-0.003-0.39-0.012-0.781-0.021-1.172c-0.005,0.002-0.009-0.002-0.013,0c-0.185-2.514-1.196-4.478-4.129-4.809
	c-0.04-0.005-0.067,0.009-0.104,0.009c-1.018-0.172-1.885-0.104-2.594,0.217c-0.738,0.336-1.375,0.823-1.911,1.459
	c-0.537,0.638-1.039,1.342-1.508,2.112c-0.469,0.771-0.94,1.493-1.408,2.162c-0.603,0.402-1.073,0.955-1.408,1.66
	c-0.336,0.703-0.805,1.257-1.408,1.659c0.201-0.737,0.468-1.424,0.804-2.062c0.335-0.636,0.637-1.323,0.906-2.062
	c-0.47-0.669-1.091-1.056-1.861-1.156c-0.133-0.018-0.259-0.032-0.387-0.048c-0.092,0.022-0.188,0.037-0.296,0.036
	c-0.513-0.007-1.024-0.059-1.535-0.093c-0.098,0.249-0.193,0.501-0.288,0.752c0.013,0.528-0.157,1.002-0.388,1.461
	c-0.033,0.104-0.084,0.201-0.156,0.293c-0.126,0.205-0.318,0.346-0.537,0.424c-0.587,0.389-1.06,0.914-1.563,1.408
	c-0.006,0.009-0.01,0.018-0.016,0.027c-0.481,0.337-0.988,0.64-1.437,1.027c-0.332,0.286-0.653,0.586-0.979,0.881
	c-0.052,0.045-0.104,0.091-0.154,0.138c-0.215,0.197-0.434,0.388-0.648,0.583c-0.88,0.457-1.772,1.041-2.679,1.759
	c-0.972,0.773-1.961,1.493-2.966,2.163c-1.006,0.671-2.062,1.174-3.168,1.509c-1.106,0.336-2.264,0.301-3.47-0.101
	c-0.067-1.207-0.085-2.295-0.05-3.269c0.033-0.971,0.15-1.926,0.352-2.866c-0.739-0.535-1.343-1.056-1.811-1.558
	c-0.469-0.504-1.073-0.921-1.81-1.258c-0.067,0.135-0.034,0.236,0.101,0.302c0.133,0.067,0.1,0.135-0.101,0.201
	c-1.342,1.006-2.665,2.113-3.972,3.32c-1.308,1.206-2.65,2.397-4.023,3.569c-1.376,1.174-2.8,2.28-4.274,3.319
	c-1.476,1.04-3.018,1.896-4.626,2.565c-0.067-0.134-0.185-0.185-0.353-0.152c-0.166,0.035-0.251-0.015-0.251-0.15
	c0.201-1.609,0.52-3.083,0.955-4.426c0.436-1.34,0.921-2.697,1.459-4.072c0.535-1.374,1.038-2.799,1.508-4.275
	c0.468-1.473,0.804-3.118,1.006-4.927c-0.269-0.335-0.588-0.637-0.955-0.906c-0.37-0.266-0.755-0.568-1.158-0.905
	c-0.268,0.201-0.487,0.42-0.653,0.655c-0.168,0.235-0.387,0.418-0.654,0.552c-0.603,1.877-1.239,3.871-1.911,5.985
	c-0.669,2.111-1.34,4.139-2.011,6.084c-0.201,1.073-0.301,2.23-0.301,3.469c0,1.242,0.185,2.399,0.552,3.47
	c0.37,1.073,0.94,1.943,1.71,2.615c0.771,0.669,1.76,0.971,2.967,0.906c1.61-0.539,3.068-1.258,4.375-2.164
	c1.307-0.905,2.53-1.86,3.671-2.866c1.139-1.006,2.262-2.027,3.369-3.067c1.106-1.038,2.296-2.027,3.57-2.967
	c0.201,1.141,0.503,2.197,0.905,3.168c0.403,0.973,0.921,1.794,1.559,2.465c0.637,0.67,1.391,1.156,2.263,1.458
	c0.871,0.302,1.911,0.351,3.118,0.15c2.345-0.603,4.425-1.692,6.235-3.268c1.43-1.244,2.838-2.369,4.226-3.384
	c-0.05,0.157-0.107,0.304-0.153,0.468c-0.234,0.839-0.352,1.676-0.352,2.513c0,0.839,0.168,1.594,0.503,2.263
	c0.336,0.672,0.872,1.174,1.609,1.509c1.073-0.067,1.961-0.386,2.666-0.956c0.703-0.569,1.322-1.222,1.86-1.961
	c0.536-0.736,1.022-1.541,1.459-2.413c0.102-0.204,0.208-0.401,0.312-0.601c0.618-1.636,1.827-3.272,2.626-4.686
	c1.19-2.106,2.679-4.18,4.484-5.801c0.018-0.016,0.037-0.025,0.056-0.04C63.115,68.701,63.653,68.184,64.306,67.748 M35.101,82.953
	c-0.183,0.032-0.281,0.041-0.281,0.041C34.912,82.987,35.008,82.963,35.101,82.953c1.221-0.216,5.802-1.747,14.631-9.23
	C49.732,73.723,41.667,82.251,35.101,82.953"/>
<path d="M64.405,127.889c0.135,0.202,0.201,0.202,0.201,0C64.606,127.689,64.54,127.689,64.405,127.889"/>
<path d="M110.443,67.439c0.89-0.644,1.819-1.2,2.885-1.56c0.231-0.078,0.438-0.076,0.618-0.023c0.014-0.006,0.026-0.013,0.04-0.019
	c0.468,0.201,0.938,0.47,1.408,0.805c-0.604-1.207-1.443-1.943-2.515-2.213c-1.073-0.267-2.196-0.267-3.369,0
	c-1.174,0.27-2.313,0.688-3.419,1.257c-1.106,0.57-1.996,1.157-2.665,1.761c-1.476,1.543-2.917,3.067-4.325,4.576
	c-1.407,1.509-2.682,3.135-3.821,4.877c0.133-0.804,0.302-1.675,0.502-2.615c0.202-0.938,0.302-1.826,0.302-2.665
	c0-0.837-0.218-1.591-0.653-2.263c-0.437-0.669-1.192-1.139-2.263-1.408c-0.536,0.94-0.921,2.163-1.157,3.671
	c-0.234,1.508-0.586,2.833-1.056,3.973c-0.133,1.141-0.352,2.448-0.654,3.922c-0.301,1.476-0.502,2.916-0.603,4.324
	c-0.101,1.408,0.035,2.7,0.402,3.872c0.369,1.173,1.192,2.063,2.464,2.665c1.944-0.738,3.05-2.212,3.32-4.425
	c1.206-2.346,2.529-4.576,3.972-6.687c1.441-2.112,2.932-4.24,4.475-6.387c0.025-0.007,0.044-0.022,0.068-0.03
	c0.377-0.547,0.796-1.047,1.257-1.501c0.029-0.091,0.062-0.176,0.083-0.279c0.143-0.054,0.281-0.121,0.42-0.186
	c0.241-0.212,0.488-0.417,0.742-0.614c0.053-0.044,0.096-0.094,0.151-0.136c0.056-0.042,0.114-0.082,0.171-0.122
	c0.452-0.416,0.911-0.823,1.378-1.212C109.184,68.311,109.79,67.83,110.443,67.439 M107.801,65.887
	c0.031,0.034,0.081,0.048,0.144,0.049c-0.018,0.014-0.036,0.03-0.053,0.045c-2.524,1.734-4.784,3.714-6.779,5.94
	c-2.012,2.248-3.889,4.645-5.632,7.192c1.541-2.817,3.384-5.464,5.531-7.946c2.145-2.479,4.626-4.525,7.443-6.134
	c0.196,0.049,0.54,0.025,1.027-0.071c-0.553,0.257-1.07,0.578-1.531,0.968v-0.093C107.816,65.837,107.766,65.855,107.801,65.887"/>
<path d="M208.118,75.089c-0.135,0.068-0.168,0.119-0.1,0.151C208.083,75.276,208.118,75.225,208.118,75.089"/>
<path d="M208.218,75.039c-0.067-0.033-0.101-0.016-0.101,0.05C208.251,75.089,208.284,75.073,208.218,75.039"/>
<path d="M207.715,75.291c-0.135,0.135-0.336,0.251-0.603,0.352c-0.269,0.1-0.47,0.251-0.604,0.453
	c-1.341,0.537-2.632,1.123-3.872,1.76c-1.241,0.637-2.431,1.291-3.57,1.961c-1.073,0.336-2.229,0.771-3.469,1.307
	c-1.242,0.537-2.499,0.99-3.772,1.358c-1.275,0.369-2.532,0.57-3.772,0.603c-1.241,0.034-2.363-0.317-3.368-1.055
	c0.268-1.14,0.486-2.164,0.653-3.068c0.166-0.905,0.519-1.725,1.056-2.465c0.938,0.672,1.944,0.823,3.017,0.453
	c1.072-0.368,2.078-0.654,3.018-0.854c0.064-0.058,0.132-0.11,0.198-0.165c0.127-0.039,0.253-0.108,0.375-0.2
	c0.1-0.051,0.205-0.094,0.299-0.154c0.393-0.25,0.721-0.584,1.118-0.827c0.427-0.262,0.85-0.566,1.162-0.939
	c2.073-1.416,3.909-3.113,4.528-5.646c0.046-0.187,0.049-0.36,0.019-0.517v-0.001c0.151-0.36,0.261-0.735,0.292-1.166
	c0.012-0.176-0.012-0.328-0.058-0.463c0.004-0.029,0.007-0.052,0.012-0.08c-0.034-0.034-0.068-0.073-0.102-0.107
	c-0.066-0.107-0.153-0.195-0.253-0.265c-0.217-0.225-0.434-0.446-0.651-0.684c-0.337-0.368-0.571-0.855-0.704-1.459
	c-0.046-0.009-0.08-0.029-0.123-0.041c-0.126-0.357-0.401-0.664-0.782-0.734c-0.813-0.15-1.612-0.179-2.413-0.079h-0.001
	c-0.537-0.034-1.073,0.085-1.609,0.352c-1.408,0.671-2.7,1.543-3.872,2.614c-1.138,1.041-2.16,2.179-3.076,3.408
	c-0.279,0.231-0.54,0.488-0.804,0.742c-0.032-0.008-0.061-0.019-0.093-0.027c-3.218,2.549-6.353,5.114-9.404,7.695
	c-3.051,2.581-6.151,5.178-9.302,7.794c-0.068-2.816,0.083-5.783,0.453-8.901c0.367-3.118,0.518-5.984,0.452-8.598
	c-0.269-0.604-0.704-1.039-1.308-1.308c-0.603-0.267-1.206-0.167-1.81,0.302c-2.413,2.348-4.878,4.693-7.392,7.04
	c-2.513,2.348-5.213,4.392-8.095,6.135c0.201-0.805,0.553-1.811,1.055-3.018c0.503-1.206,0.871-2.395,1.107-3.569
	c0.163-0.818,0.188-1.574,0.091-2.278c-0.035-0.071-0.062-0.146-0.074-0.229c-0.014-0.096-0.023-0.17-0.033-0.249
	c-0.018-0.138-0.034-0.265-0.061-0.391c-0.004,0.005-0.01,0.01-0.015,0.015c-0.004-0.012-0.005-0.025-0.009-0.036
	c-0.301-0.94-1.124-1.61-2.464-2.012c-0.335,1.207-0.82,2.665-1.458,4.375c-0.292,0.784-0.529,1.565-0.741,2.342
	c-1.413,1.446-2.902,2.801-4.487,4.044c-1.71,1.342-3.589,2.531-5.633,3.57c-1.984,1.009-4.175,1.709-6.566,2.118
	c-0.008-0.011-0.017-0.014-0.025-0.028c-0.147-0.247,0.065-1.08,0.085-1.377c0.06-0.907,0.121-1.814,0.181-2.722
	c0.008-0.131-0.007-0.245-0.032-0.352c-0.022-0.311-0.084-0.615-0.23-0.907c0.334-0.335,0.568-0.788,0.704-1.358
	c0.133-0.569,0.167-1.157,0.101-1.761c-0.068-0.603-0.237-1.138-0.503-1.608c-0.269-0.469-0.638-0.805-1.106-1.006
	c-0.672-0.134-1.242-0.066-1.71,0.201c-0.47,0.269-0.906,0.403-1.308,0.403c0.335-0.536,0.62-1.072,0.855-1.61
	c0.234-0.536,0.284-1.172,0.151-1.911c-0.201-1.341-0.839-2.263-1.911-2.765c-1.073-0.503-2.179-0.888-3.319-1.157
	c-1.141,0-2.146,0.269-3.017,0.805c-0.872,0.537-1.677,1.073-2.414,1.609c-1.877,2.481-3.653,4.978-5.33,7.493
	c-1.675,2.514-2.882,5.548-3.62,9.101c0.135,0.269,0.268,0.521,0.402,0.754c0.028,0.05,0.056,0.107,0.083,0.158
	c0.188,0.885,0.625,1.671,1.218,2.348c0.082,0.094,0.182,0.161,0.289,0.216c0.006,0.015,0.013,0.028,0.019,0.044
	c1.475,0.603,2.901,0.586,4.274-0.05c1.374-0.638,2.699-1.509,3.972-2.615c1.273-1.106,2.498-2.263,3.671-3.469
	c1.173-1.207,2.264-2.146,3.269-2.817c0.206-0.124,0.395-0.212,0.577-0.286c0.24-0.178,0.493-0.303,0.776-0.378
	c0.056-0.048,0.114-0.091,0.167-0.151c0.215-0.093,0.43-0.189,0.644-0.284c0.003,0,0.005-0.001,0.008-0.002
	c0.177-0.019,0.344-0.069,0.497-0.141c-0.035,0.354-0.057,0.727-0.081,1.098c0.038,0.099,0.062,0.202,0.062,0.302
	c0,0.149-0.041,0.277-0.101,0.391c-0.019,0.457-0.034,0.921-0.034,1.412c0,1.375,0.032,2.565,0.1,3.571
	c0.335,0.671,0.687,1.207,1.056,1.609c0.367,0.401,0.921,0.736,1.659,1.005c0.468,0,0.888,0.051,1.257,0.151
	c0.368,0.101,0.788,0.116,1.258,0.05c3.352-1.541,6.401-3.251,9.152-5.129c1.499-1.023,2.899-2.167,4.219-3.41
	c0.062,0.714,0.212,1.383,0.456,2.002c0.503,1.275,1.795,2.047,3.872,2.313c1.409-0.668,2.716-1.491,3.923-2.463
	c1.206-0.972,2.363-1.977,3.469-3.018c1.106-1.038,2.178-2.094,3.219-3.167c1.038-1.072,2.127-2.045,3.268-2.917
	c-0.269,2.549-0.469,5.129-0.604,7.744c-0.135,2.614-0.268,5.196-0.402,7.744c-0.603,0.603-1.207,1.222-1.81,1.861
	c-0.603,0.636-1.275,1.222-2.011,1.759c-3.621,4.157-7.276,8.314-10.963,12.471c-3.686,4.156-6.972,8.683-9.856,13.577
	c-2.011,2.548-3.821,5.347-5.43,8.398c-1.609,3.051-3.084,6.185-4.426,9.403c-0.603,1.408-1.189,2.816-1.759,4.224
	c-0.57,1.408-1.072,2.883-1.509,4.425c-0.435,1.542-0.737,3.119-0.905,4.727c-0.167,1.609-0.117,3.319,0.151,5.129
	c0.336,1.14,0.703,2.263,1.106,3.369c0.402,1.107,0.889,2.146,1.458,3.118c0.571,0.971,1.224,1.826,1.961,2.565
	c0.739,0.737,1.609,1.307,2.615,1.71c-0.066,0.201-0.066,0.335,0,0.402c0.067,0.066,0.135,0.166,0.201,0.302
	c0.337,0.066,0.738,0.183,1.207,0.352c0.47,0.166,0.872,0.318,1.207,0.451c2.414,0.067,4.543-0.268,6.386-1.004
	c1.845-0.74,3.47-1.745,4.878-3.018c1.408-1.273,2.649-2.699,3.721-4.274c1.072-1.576,2.077-3.168,3.017-4.777
	c1.072-1.745,2.062-3.637,2.967-5.682c0.905-2.046,1.625-4.242,2.162-6.587c2.347-6.103,4.124-12.557,5.331-19.361
	c1.206-6.805,2.245-13.863,3.117-21.17c0-1.543,0.066-3.034,0.201-4.475c0.134-1.443,0.202-3.002,0.202-4.677
	c3.552-3.42,7.241-6.653,11.063-9.705c1.641-1.31,3.236-2.683,4.803-4.098c-0.109,0.985-0.157,1.98-0.127,2.992
	c0.035,1.106,0.219,2.112,0.554,3.017c0.336,0.904,0.854,1.693,1.558,2.363c0.704,0.671,1.659,1.141,2.866,1.408
	c1.743,0,3.184-0.183,4.325-0.553c1.139-0.367,2.379-0.855,3.721-1.458c0.133-0.134,0.151-0.252,0.05-0.352
	c-0.1-0.1-0.017-0.217,0.252-0.352c0.334,0.201,0.754,0.1,1.257-0.302c0.503-0.402,1.056-0.704,1.659-0.905
	c0.134-0.2,0.101-0.267-0.1-0.2c-0.202,0.066-0.302,0.034-0.302-0.102c0.201-0.133,0.385-0.233,0.553-0.302
	c0.166-0.065,0.284-0.233,0.352-0.502c-0.47,0.269-1.023,0.419-1.659,0.452c-0.638,0.035-1.124,0.05-1.459,0.05
	c1.877-0.669,3.604-1.407,5.18-2.212c1.574-0.804,3.067-1.843,4.475-3.117c-0.269,0-0.402-0.033-0.402-0.101
	c0.201-0.201,0.452-0.368,0.754-0.503c0.302-0.134,0.603-0.285,0.905-0.452c0.302-0.167,0.536-0.352,0.705-0.554
	C207.732,75.693,207.781,75.492,207.715,75.291 M191.121,69.508c0.348-0.332,0.714-0.66,1.092-0.985
	c0.052-0.016,0.104-0.043,0.152-0.086c0.221-0.197,0.446-0.389,0.668-0.584c0.169-0.136,0.328-0.273,0.502-0.406
	c-0.006-0.009-0.011-0.011-0.017-0.019c0.457-0.388,0.924-0.765,1.417-1.108c0.435-0.304,0.915-0.548,1.373-0.822
	c0.316-0.122,0.632-0.243,0.948-0.365c-0.94,1.543-2.129,2.833-3.57,3.872c-1.443,1.04-3.002,1.996-4.677,2.866
	C189.678,71.001,190.383,70.212,191.121,69.508 M121.174,77.704c-0.972,0.941-1.945,1.861-2.916,2.766
	c-0.973,0.905-1.996,1.777-3.067,2.615c-1.072,0.839-2.246,1.559-3.52,2.162c0.738-1.473,1.459-2.949,2.162-4.425
	c0.704-1.474,1.508-2.849,2.414-4.124c0.905-1.272,1.944-2.413,3.117-3.418c1.173-1.006,2.598-1.776,4.275-2.314
	c0.133,0.47,0.151,1.174,0.05,2.112c-0.101,0.94,0.05,1.577,0.453,1.911C123.135,75.862,122.146,76.766,121.174,77.704
	 M135.808,163.541c-0.67,0.167-1.358,0.235-2.062,0.202c-0.704-0.035-1.34-0.151-1.91-0.352c-0.57-0.201-0.989-0.503-1.258-0.904
	c1.141,0.266,2.247,0.517,3.319,0.753c1.073,0.234,2.28,0.083,3.62-0.453C137.049,163.122,136.479,163.374,135.808,163.541
	 M160.396,115.419c-1.307,6.368-2.599,12.37-3.871,18.002c-1.007,2.816-1.997,5.597-2.967,8.348
	c-0.973,2.748-2.112,5.363-3.42,7.844c-1.307,2.479-2.831,4.743-4.576,6.788c-1.743,2.045-3.854,3.772-6.336,5.179
	c-0.938,0.536-1.944,0.871-3.017,1.006c-1.072,0.134-2.112,0.101-3.118-0.099c-1.005-0.203-1.943-0.554-2.815-1.057
	c-0.871-0.503-1.542-1.123-2.012-1.86c-0.201-0.671-0.402-1.358-0.604-2.063c-0.2-0.703-0.234-1.425-0.1-2.162
	c0.269,0,0.352,0.151,0.251,0.453c-0.1,0.302-0.083,0.519,0.051,0.653c0.268-0.336,0.369-0.738,0.301-1.207
	c-0.066-0.469,0.035-0.771,0.302-0.904c0.202-2.683,0.588-5.164,1.157-7.442c0.57-2.281,1.257-4.426,2.062-6.437
	c0.804-2.012,1.676-3.972,2.614-5.884c0.94-1.911,1.845-3.906,2.716-5.983c1.609-2.349,3.185-4.813,4.726-7.393
	c1.544-2.582,3.286-4.945,5.23-7.089c0-0.27,0.035-0.454,0.1-0.554c0.059-0.087,0.087-0.219,0.095-0.382
	c0.135-0.183,0.271-0.366,0.406-0.55c2.417-2.922,4.847-5.832,7.294-8.723c2.58-3.051,5.213-6.051,7.895-9
	c0.066,0,0.1,0.033,0.1,0.1C162.525,102.243,161.704,109.048,160.396,115.419 M162.911,92.538c-0.065,0.117-0.148,0.223-0.233,0.329
	c-0.434,0.353-0.853,0.723-1.259,1.105c-0.074,0.059-0.143,0.113-0.218,0.176c-0.157,0.129-0.28,0.267-0.382,0.415
	c-0.45,0.454-0.888,0.921-1.299,1.416c-0.003,0.004-0.004,0.008-0.007,0.011c-1.162,1.15-2.244,2.395-3.254,3.695
	c-0.243,0.247-0.489,0.509-0.741,0.799c-0.67,0.77-1.274,1.524-1.809,2.262c0.011,0,0.019-0.006,0.03-0.006
	c-0.011,0.011-0.025,0.019-0.036,0.031c0.001-0.009,0.006-0.015,0.006-0.025c-0.739,0.738-1.443,1.525-2.112,2.364
	c-0.579,0.722-1.127,1.49-1.655,2.288c-1.368,1.546-2.69,3.126-3.789,4.865c-0.095,0.128-0.191,0.254-0.289,0.39
	c-0.604,0.837-1.172,1.625-1.71,2.363c0.042-0.034,0.08-0.071,0.122-0.107c-0.043,0.072-0.088,0.142-0.132,0.212
	c0.005-0.032,0.01-0.065,0.01-0.105c-0.669,0.805-1.239,1.609-1.71,2.414c0.019-0.005,0.028-0.018,0.046-0.024
	c-0.017,0.024-0.032,0.048-0.048,0.071c0-0.017,0.002-0.029,0.002-0.047c-0.224,0.246-0.426,0.509-0.636,0.767
	c-0.082,0.047-0.158,0.112-0.22,0.208c-0.06,0.09-0.119,0.181-0.178,0.271c-0.33,0.439-0.639,0.896-0.926,1.369
	c-0.471,0.775-0.923,1.55-1.371,2.326c-0.479,0.632-0.954,1.263-1.372,1.926c-0.009,0.008-0.014,0.015-0.023,0.023
	c-0.078,0.064-0.104,0.126-0.101,0.185c-0.323,0.536-0.594,1.103-0.793,1.711c-1.213,2.023-2.36,4.167-3.431,6.45
	c-1.273,2.716-2.547,5.281-3.822,7.695c0.336-1.075,0.671-1.962,1.006-2.665c0.337-0.706,0.671-1.695,1.006-2.968
	c3.621-7.175,7.577-13.896,11.867-20.164c4.292-6.27,9.152-12.119,14.583-17.55c0.018-0.063,0.052-0.126,0.075-0.189
	c0.958-1.06,1.916-2.121,2.874-3.181c0.127-0.091,0.252-0.177,0.37-0.25c0-0.065,0.014-0.128,0.028-0.191
	c0.47-0.52,0.94-1.04,1.41-1.56c0.039-0.043,0.053-0.09,0.081-0.136C163.061,91.9,163.075,92.243,162.911,92.538 M183.672,74.302
	c-0.189,0.02-0.317,0.073-0.345,0.185c-0.034,0.134-0.117,0.268-0.251,0.402c0.177-0.059,0.315-0.133,0.427-0.218
	c-0.077,0.175-0.167,0.351-0.24,0.526c-0.282,0.232-0.555,0.464-0.841,0.697c-0.905,0.739-1.777,1.493-2.614,2.263
	c-0.062,0.057-0.119,0.115-0.179,0.171c-2.135,1.432-4.073,3.247-5.987,5.008h-0.12l-0.1,0.101v0.101
	c-0.076,0.07-0.151,0.139-0.227,0.207c-0.059-0.002-0.116,0.002-0.176-0.006c-0.077,0.139-0.172,0.271-0.261,0.405
	c-0.327,0.297-0.654,0.59-0.982,0.876c-0.016,0.013-0.021,0.029-0.034,0.044c-1.651,1.288-3.113,2.812-4.795,4.072
	c0.023-0.157,0.038-0.313,0.038-0.469v-0.905c3.15-2.615,6.286-5.28,9.403-7.995c2.548-2.22,5.11-4.312,7.68-6.33
	C183.927,73.726,183.801,74.014,183.672,74.302"/>
<path d="M198.765,82.935c0.134,0.269,0.201,0.285,0.201,0.05C198.966,82.75,198.899,82.733,198.765,82.935"/>
<path d="M249.654,75.794v0.2h0.2c0.065-0.065,0.133-0.1,0.2-0.1v-0.202h-0.3L249.654,75.794z"/>
<path d="M91.61,41.197c-0.236-0.201-0.52-0.368-0.855-0.503c-0.67-0.066-1.308,0.034-1.91,0.302
	c-3.42,4.827-6.404,9.855-8.952,15.086c-2.549,5.229-4.794,10.761-6.738,16.594c-0.736,1.475-1.322,2.9-1.759,4.274
	c-0.436,1.375-0.821,2.934-1.157,4.676c-0.468,0.337-0.921,0.705-1.358,1.106c-0.435,0.403-0.72,0.973-0.855,1.71
	c0.201,0.068,0.369,0.136,0.503,0.201c0.135,0.068,0.269,0.168,0.402,0.302c-0.066,0.135-0.066,0.237,0,0.302
	c0.068,0.067,0.101,0.168,0.101,0.302c-1.14,3.887-2.195,8.095-3.168,12.621c-0.299,1.395-0.567,2.766-0.844,4.145
	c-0.128,0.527-0.233,1.05-0.317,1.555c-0.502,2.567-0.978,5.114-1.404,7.626c-0.335,2.145-0.553,4.458-0.653,6.939
	c-0.101,2.48,0.251,4.894,1.055,7.242c0.136,0.133,0.236,0.15,0.302,0.05c0.068-0.101,0.135-0.085,0.202,0.05
	c0.268,0.604,0.552,1.207,0.854,1.81c0.302,0.603,0.672,1.122,1.107,1.559c0.437,0.435,0.955,0.77,1.559,1.005
	c0.603,0.235,1.341,0.285,2.212,0.152c1.81-0.872,3.319-2.113,4.525-3.721c1.208-1.609,2.247-3.369,3.119-5.28
	c0.87-1.911,1.642-3.856,2.312-5.833c0.507-1.496,1.039-2.904,1.585-4.265c0.229-0.505,0.443-1.017,0.642-1.536
	c0.12-0.056,0.25-0.052,0.388,0.017c0.133-0.929,0.282-1.726,0.449-2.392c0.184-0.56,0.365-1.12,0.547-1.678
	c0.07-0.185,0.13-0.362,0.211-0.556c0.033-0.114,0.061-0.247,0.092-0.367c0.017-0.049,0.033-0.1,0.05-0.15
	c0.034-0.1,0.051-0.193,0.06-0.284c0.301-1.266,0.538-2.766,0.703-4.529c0.201-2.146,0.167-4.292-0.1-6.436
	c-0.269-2.147-0.855-4.09-1.76-5.833s-2.263-2.984-4.073-3.722c1.541-0.266,3-0.619,4.375-1.055c1.373-0.436,2.63-1.022,3.771-1.76
	c0.066-0.469,0-0.838-0.201-1.107c0.334-0.201,0.704-0.418,1.106-0.653c0.402-0.234,0.603-0.519,0.603-0.855
	c-0.268-0.134-0.503-0.134-0.703,0c-0.201,0.134-0.337,0.134-0.403,0c0-0.134,0.101-0.184,0.302-0.151
	c0.201,0.034,0.301-0.051,0.301-0.252c-2.078,0.068-4.157,0.403-6.235,1.006c-1.975,0.573-4.045,0.865-6.201,0.894
	c0.863-2.579,1.712-5.162,2.552-7.748c0.045-0.063,0.081-0.123,0.13-0.186c0-0.055-0.018-0.087-0.028-0.129
	c0.115-0.356,0.231-0.712,0.346-1.068c0.027-0.037,0.062-0.069,0.083-0.111c0.06-0.118,0.077-0.222,0.055-0.314
	c0.171-0.532,0.346-1.064,0.517-1.596c0.03-0.093,0.048-0.181,0.056-0.267c0.942-1.808,1.811-3.598,2.591-5.366
	c1.006-2.278,2.011-4.558,3.017-6.838c0.427-0.712,0.925-1.503,1.486-2.366c2.171-2.968,4.313-5.974,5.99-9.206
	c0.18-0.176,0.343-0.357,0.469-0.547c0.201-0.302,0.318-0.636,0.352-1.005c0.033-0.368-0.151-0.821-0.553-1.358
	C92.129,41.566,91.844,41.398,91.61,41.197 M76.158,115.419c9.036-17.6,4.607-25.91,4.607-25.91
	C86.612,96.498,76.158,115.419,76.158,115.419 M77.379,85.247c1.542,2.146,2.414,4.76,2.615,7.845c0.201,3.083,0,5.899-0.603,8.448
	c-0.604,2.68-1.426,5.346-2.464,7.995c-1.041,2.648-2.062,5.245-3.068,7.794c-0.02,0.101-0.025,0.18-0.026,0.251
	c-0.005,0.019-0.014,0.035-0.017,0.055c-0.007,0.041-0.023,0.078-0.037,0.117c-0.118,0.194-0.229,0.394-0.339,0.596
	c-0.261,0.346-0.484,0.731-0.639,1.184c-0.169,0.314-0.329,0.631-0.48,0.954c-0.316,0.424-0.602,0.871-0.825,1.368
	c-0.302,0.67-0.637,1.325-1.006,1.962c-0.367,0.636-0.82,1.222-1.357,1.76c-0.536,0.536-1.208,0.905-2.012,1.107
	c-0.403-0.94-0.619-1.962-0.654-3.069c-0.033-1.105,0.017-2.229,0.151-3.368c-0.012-0.014-0.024-0.02-0.037-0.03
	c0.031-0.23,0.069-0.457,0.089-0.689c0.007-0.087-0.002-0.172-0.02-0.255c0.135-1.817,0.322-3.606,0.572-5.363
	c0.184-1.289,0.434-2.622,0.713-3.975c0.082-0.145,0.138-0.315,0.154-0.511c0.011-0.132,0.026-0.264,0.038-0.396
	c0.07-0.318,0.126-0.628,0.201-0.95c-0.043-0.021-0.067-0.048-0.096-0.072c0.046-0.397,0.099-0.791,0.159-1.185v-0.002
	c0.107-0.708,0.233-1.415,0.388-2.117c0.299-1.35,0.77-2.648,0.812-4.039c0-0.006-0.001-0.01-0.001-0.015
	c0.347-1.062,0.586-2.137,0.699-3.231c0.019-0.181,0.055-0.365,0.081-0.548c0.115-0.158,0.201-0.347,0.232-0.575
	c0.109-0.817,0.283-1.619,0.484-2.414c0.166-0.492,0.348-0.988,0.561-1.491c0-0.108-0.035-0.174-0.088-0.217
	c0.217-0.726,0.445-1.449,0.668-2.175c0.118-0.317,0.229-0.641,0.325-0.978c0.17-0.594,0.313-1.185,0.431-1.771
	c0.121-0.52,0.229-1.042,0.31-1.571c0.007-0.049,0.005-0.094,0.007-0.141c0.468-0.135,1.121-0.363,1.967-0.69
	C76.138,84.51,76.842,84.643,77.379,85.247"/>
</svg>
